<?xml version="1.0" encoding="utf-8"?>
<!-- Svg Vector Icons : http://www.onlinewebfonts.com/icon -->
<!DOCTYPE svg PUBLIC "-//W3C//DTD SVG 1.1//EN" "http://www.w3.org/Graphics/SVG/1.1/DTD/svg11.dtd">
<svg fill="#00ffff" version="1.1" xmlns="http://www.w3.org/2000/svg" xmlns:xlink="http://www.w3.org/1999/xlink" x="0px" y="0px" viewBox="0 0 1000 1000" enable-background="new 0 0 1000 1000" xml:space="preserve">
<metadata> Svg Vector Icons : http://www.onlinewebfonts.com/icon </metadata>
<g><g transform="translate(0.000000,512.000000) scale(0.100000,-0.100000)"><path d="M7290,3931.9c-599.1-599.1-1125.5-1125.5-1167.6-1173.3c-101.5-116.8-195.2-317.7-222-484.3c-21.1-114.8-17.2-400.1,3.8-511.1c5.8-28.7-595.3-612.5-631.7-612.5c-9.6,0-32.5,19.1-53.6,40.2C5088.8,1336.4,3775.7,2481,3153.6,2990.2C2267.4,3715.6,1339,4397,900.7,4640.1c-227.8,128.2-411.5,151.2-570.4,70.8c-132.1-67-229.7-216.3-229.7-346.5c0-181.8-93.8-80.4,2084.5-2260.6L4225.5,59.6l-95.7-93.8c-53.6-49.8-805.8-779-1674.8-1619.3C374.3-3665.2,205.9-3833.7,154.2-3940.9c-30.6-59.3-45.9-132.1-49.8-233.5c-7.7-124.4,0-162.7,38.3-248.8c65.1-143.6,151.2-233.5,279.5-296.7c91.9-45.9,134-53.6,262.2-53.6c287.1,0,145.5-132.1,2178.3,2017.5C3854.2-1707.1,4719.4-794,4784.4-725.1L4905-600.7l2032.8-2042.4c1665.3-1669.1,2052-2050,2130.4-2086.4c145.5-67,363.7-63.2,511.1,9.6c204.8,99.5,306.3,264.1,317.7,507.2c7.7,147.4,3.8,168.4-51.7,279.5c-55.5,112.9-164.6,214.4-2193.6,2050L5515.6,46.2l45.9,49.8c407.7,438.3,941.8,987.7,959,983.8c11.5,0,90-21,172.3-42.1c264.1-68.9,514.9-40.2,763.7,86.1c126.4,65.1,233.5,168.4,1265.3,1192.5c664.2,662.3,1137,1146.6,1152.3,1184.8c24.9,53.6,23,68.9-1.9,120.6c-38.3,72.7-112.9,103.4-181.8,74.6c-26.8-11.5-505.3-476.6-1060.4-1031.7c-945.6-945.6-1014.5-1010.7-1062.3-997.3c-72.7,21.1-206.7,91.9-223.9,116.8c-7.7,13.4,415.3,449.8,1052.8,1087.2c1102.5,1102.5,1093,1093,1052.8,1198.2c-17.2,42.1-118.7,91.9-168.5,78.5c-21-5.7-526.4-497.7-1121.7-1093L7077.5,1973.8l-109.1,109.1l-111,109.1l1081.5,1083.4c968.5,970.5,1081.5,1089.1,1081.5,1142.7c0,32.5-5.8,74.6-11.5,91.9c-17.2,44-116.8,90-166.6,76.6c-22.9-7.7-520.6-491.9-1108.3-1077.6L6669.8,2446.6l-40.2,65.1c-22.9,36.4-55.5,101.4-72.8,147.4l-30.6,84.2L7556.1,3773c936,936,1029.8,1035.5,1029.8,1093c0,74.6-78.5,151.2-153.1,151.2C8390.6,5017.2,8176.3,4812.4,7290,3931.9z"/></g></g>
</svg>